<svg width="150" height="65" viewBox="0 0 150 65" fill="none" xmlns="http://www.w3.org/2000/svg">
<path fill-rule="evenodd" clip-rule="evenodd" d="M16.3171 5.6319C11.2442 7.87303 5.64625 12.4334 2.84475 19.0969C-1.99848 30.6168 0.216476 39.3293 3.05086 40.5505C7.23922 42.3553 8.23753 36.6975 9.36235 30.3231C9.91834 27.1721 10.5052 23.846 11.5235 21.1593C12.4359 19.6314 14.6848 18.3022 16.3171 17.1713V7.67093V5.6319ZM20.3972 14.5612C24.2548 12.311 27.2636 10.1266 27.4948 6.30846C27.6242 4.17129 24.5223 3.48976 20.3972 4.43785V7.67093V14.5612Z" fill="url(#paint0_linear_45_1033)" fill-opacity="0.65"/>
<path fill-rule="evenodd" clip-rule="evenodd" d="M24.2101 64.5017C36.0151 63.7997 53.6355 55.4801 57.4803 37.6757C61.3251 19.8712 51.8302 0 39.1641 0C34.14 0 27.0734 3.91231 20.3749 9.71061V18.6743L20.7907 19.8227H15.8557L16.272 18.673H16.2725V13.5474C7.81241 22.0766 0.851318 33.1333 0.851318 42.1269C0.851318 59.3897 11.5163 65.2567 24.2101 64.5017ZM20.8058 21.4619H15.8406L16.272 22.6534H16.2725V34.2455H16.2661L15.8858 35.2706H21.0658L20.7664 34.3441C21.6146 30.6546 24.8644 27.9417 28.7955 27.9417C32.7626 27.9417 36.0783 30.7425 36.8892 34.4826L36.5363 35.2706H41.5256L41.1981 34.509C40.3496 28.3917 35.1201 23.6832 28.7955 23.6832C25.5534 23.6832 22.6385 24.9342 20.4145 26.9646L20.3749 22.6521L20.8058 21.4619ZM16.5134 38.7291L15.9447 37.7474H16.3589H20.6442H21.2959L20.8867 38.7412C21.9373 42.1247 25.0809 44.5806 28.7955 44.5806C32.5183 44.5806 35.6678 42.114 36.7117 38.7189L36.3795 37.7474H36.947H41.2323H41.5215L41.1029 38.5994C40.0117 44.4287 34.9165 48.8392 28.7955 48.8392C22.7202 48.8392 17.6553 44.4941 16.5134 38.7291Z" fill="url(#paint1_linear_45_1033)" fill-opacity="0.4"/>
<path d="M61.164 38.5208C58.5097 50.8297 44.0057 58.4289 42.2551 56.6277C38.7441 53.0153 47.2543 49.672 49.5012 42.311C50.2083 35.056 47.2894 24.7167 53.4938 21.6012C57.0445 19.8184 63.1458 26.1006 61.164 38.5208Z" fill="url(#paint2_linear_45_1033)"/>
<path fill-rule="evenodd" clip-rule="evenodd" d="M16.2729 15.4759C8.20758 22.3167 2.07843 31.8155 2.07843 39.4257C2.07843 52.9279 12.731 57.995 24.6021 57.4079C36.0346 56.8428 49.559 49.87 53.0175 35.9442C56.476 22.0184 47.9351 6.47632 36.5419 6.47632C31.3232 6.47632 25.6166 8.77779 20.3753 12.347V18.6742L20.7911 19.8226H15.8561L16.2724 18.6729H16.2729V15.4759ZM20.8062 21.4618H15.841L16.2724 22.6533H16.2729V34.2454H16.2665L15.8862 35.2705H21.0662L20.7668 34.344C21.615 30.6545 24.8648 27.9416 28.7961 27.9416C32.763 27.9416 36.0786 30.7424 36.8896 34.4825L36.5367 35.2705H41.526L41.1988 34.5089C40.35 28.3917 35.1204 23.6831 28.7961 23.6831C25.5538 23.6831 22.6389 24.9341 20.4149 26.9645L20.3753 22.652L20.8062 21.4618ZM16.5138 38.729L15.9451 37.7473H16.3593H20.6446H21.2963L20.8871 38.7411C21.9377 42.1246 25.0813 44.5805 28.7961 44.5805C32.5186 44.5805 35.6682 42.1139 36.712 38.7188L36.3799 37.7473H36.9476H41.2327H41.5219L41.1033 38.5993C40.0124 44.4286 34.9171 48.8391 28.7961 48.8391C22.7207 48.8391 17.6557 44.494 16.5138 38.729Z" fill="url(#paint3_linear_45_1033)"/>
<path d="M72.3563 51.2873C71.4075 51.2873 70.5608 51.0822 69.816 50.6722C69.0713 50.2623 68.4828 49.7134 68.0504 49.026C67.618 48.3266 67.4019 47.5425 67.4019 46.6742C67.4019 45.8058 67.618 45.0279 68.0504 44.3405C68.4828 43.641 69.0713 43.0861 69.816 42.6761C70.5608 42.2661 71.4075 42.061 72.3563 42.061H73.4012V43.1646H72.2662C71.6057 43.1646 70.999 43.3213 70.4466 43.6349C69.9061 43.9363 69.4737 44.3524 69.1494 44.8832C68.8371 45.4139 68.681 46.0109 68.681 46.6742C68.681 47.3374 68.8371 47.9344 69.1494 48.4652C69.4737 48.9959 69.9061 49.4179 70.4466 49.7315C70.999 50.0329 71.6057 50.1838 72.2662 50.1838H73.4012V51.2873H72.3563ZM77.0047 51.2873V38.0811H78.2659V51.2873H77.0047Z" fill="#74D61D"/>
<path d="M85.6882 51.2564C84.7632 51.2564 83.9406 51.0454 83.22 50.6232C82.4993 50.189 81.9347 49.604 81.5264 48.8684C81.1182 48.1328 80.9139 47.3126 80.9139 46.4081C80.9139 45.5035 81.1182 44.6894 81.5264 43.9658C81.9347 43.2302 82.4993 42.6452 83.22 42.211C83.9406 41.7768 84.7632 41.5597 85.6882 41.5597C86.6131 41.5597 87.4357 41.7768 88.1564 42.211C88.877 42.6332 89.4416 43.2121 89.8499 43.9477C90.2582 44.6833 90.4624 45.5035 90.4624 46.4081C90.4624 47.3126 90.2582 48.1328 89.8499 48.8684C89.4416 49.604 88.877 50.189 88.1564 50.6232C87.4357 51.0454 86.6131 51.2564 85.6882 51.2564ZM85.6882 50.1528C86.3728 50.1528 86.9792 49.99 87.5078 49.6644C88.0364 49.3268 88.4446 48.8745 88.7329 48.3076C89.0331 47.7407 89.1833 47.1075 89.1833 46.4081C89.1833 45.7086 89.0331 45.0755 88.7329 44.5085C88.4446 43.9416 88.0364 43.4954 87.5078 43.1698C86.9792 42.8322 86.3728 42.6633 85.6882 42.6633C84.9916 42.6633 84.3791 42.8322 83.8505 43.1698C83.3341 43.4954 82.9256 43.9416 82.6254 44.5085C82.3372 45.0755 82.193 45.7086 82.193 46.4081C82.193 47.1075 82.3372 47.7407 82.6254 48.3076C82.9256 48.8745 83.3341 49.3268 83.8505 49.6644C84.3791 49.99 84.9916 50.1528 85.6882 50.1528ZM97.5046 51.2564C96.7239 51.2564 96.0154 51.0936 95.3787 50.7679C94.7421 50.4303 94.2318 49.96 93.8474 49.3568C93.4751 48.7418 93.2889 48.012 93.2889 47.1679V41.7949H94.55V47.1136C94.55 47.7649 94.688 48.3196 94.9644 48.7779C95.2526 49.2241 95.619 49.5678 96.0634 49.8091C96.5077 50.0382 96.9822 50.1528 97.4866 50.1528C98.003 50.1528 98.4836 50.0323 98.9279 49.791C99.3844 49.5497 99.7506 49.206 100.027 48.7599C100.303 48.3015 100.441 47.7529 100.441 47.1136V41.7949H101.702V47.1679C101.702 48.012 101.51 48.7418 101.126 49.3568C100.754 49.96 100.249 50.4303 99.6125 50.7679C98.9881 51.0936 98.2854 51.2564 97.5046 51.2564ZM109.199 51.2564C110.052 51.2564 110.826 51.0694 111.523 50.6956C112.232 50.3218 112.796 49.7791 113.216 49.0674C113.637 48.3438 113.847 47.4634 113.847 46.4261V37.8149H112.586V43.6944H112.55C112.238 43.0794 111.763 42.5728 111.126 42.1748C110.49 41.7768 109.793 41.5778 109.037 41.5778C108.208 41.5778 107.451 41.7707 106.767 42.1567C106.082 42.5427 105.536 43.0913 105.127 43.803C104.731 44.5024 104.533 45.3468 104.533 46.3357C104.533 47.373 104.743 48.2594 105.163 48.995C105.584 49.7187 106.142 50.2795 106.839 50.6775C107.547 51.0635 108.334 51.2564 109.199 51.2564ZM109.217 50.1528C108.616 50.1528 108.052 50.0081 107.523 49.7187C107.007 49.4172 106.592 48.9889 106.28 48.4342C105.968 47.8673 105.812 47.1921 105.812 46.4081C105.812 45.6482 105.962 44.9909 106.262 44.4362C106.574 43.8692 106.989 43.4351 107.505 43.1336C108.022 42.8322 108.58 42.6814 109.181 42.6814C109.793 42.6814 110.358 42.8322 110.874 43.1336C111.391 43.4231 111.799 43.8511 112.099 44.4181C112.412 44.9728 112.568 45.6421 112.568 46.4261C112.568 47.2221 112.412 47.8976 112.099 48.4523C111.799 49.007 111.391 49.4292 110.874 49.7187C110.37 50.0081 109.817 50.1528 109.217 50.1528Z" fill="#74D61D"/>
<path d="M72.7772 31.2979C71.7344 31.2979 70.8251 31.0808 70.0493 30.6467C69.2863 30.2125 68.6949 29.5995 68.2753 28.8078C67.8556 28.0033 67.6458 27.0647 67.6458 25.992V17.085H70.2592V22.5058H70.2782C70.5707 22.0589 70.9777 21.7077 71.4991 21.4523C72.0332 21.1969 72.6055 21.0692 73.2159 21.0692C74.1697 21.0692 74.9963 21.2799 75.6958 21.7013C76.3952 22.1227 76.9357 22.7037 77.3173 23.4444C77.7115 24.1723 77.9086 25.0215 77.9086 25.992C77.9086 27.0136 77.7051 27.9267 77.2982 28.7312C76.9039 29.5229 76.3253 30.1486 75.5623 30.6083C74.7992 31.0681 73.8709 31.2979 72.7772 31.2979ZM72.7772 29.0568C73.5529 29.0568 74.157 28.7822 74.5894 28.2331C75.0345 27.6713 75.2571 26.9881 75.2571 26.1836C75.2571 25.379 75.0345 24.7022 74.5894 24.1531C74.157 23.5913 73.5529 23.3103 72.7772 23.3103C72.0014 23.3103 71.391 23.5913 70.9459 24.1531C70.5135 24.7022 70.2973 25.379 70.2973 26.1836C70.2973 26.9881 70.5135 27.6713 70.9459 28.2331C71.391 28.7822 72.0014 29.0568 72.7772 29.0568ZM84.7913 31.2979C83.9011 31.2979 83.1254 31.0681 82.4641 30.6083C81.8028 30.1486 81.2877 29.5357 80.9189 28.7695C80.5628 27.9905 80.3848 27.1349 80.3848 26.2027C80.3848 25.245 80.5883 24.3766 80.9952 23.5976C81.4149 22.8187 82.0126 22.2057 82.7883 21.7588C83.5641 21.299 84.4925 21.0692 85.5734 21.0692C86.6671 21.0692 87.5891 21.299 88.3394 21.7588C89.0898 22.2185 89.662 22.8378 90.0563 23.6168C90.4505 24.3958 90.6476 25.2577 90.6476 26.2027V31.0681H88.0342V29.4399H87.9961C87.7036 29.9507 87.303 30.3913 86.7943 30.7616C86.2983 31.1191 85.6307 31.2979 84.7913 31.2979ZM85.5353 29.0568C86.2983 29.0568 86.896 28.7759 87.3284 28.214C87.7735 27.6521 87.9961 26.9689 87.9961 26.1644C87.9961 25.3727 87.7735 24.7022 87.3284 24.1531C86.896 23.5913 86.2983 23.3103 85.5353 23.3103C84.7595 23.3103 84.1491 23.5913 83.704 24.1531C83.2589 24.7022 83.0363 25.3727 83.0363 26.1644C83.0363 26.9689 83.2589 27.6521 83.704 28.214C84.1491 28.7759 84.7595 29.0568 85.5353 29.0568ZM94.2665 31.0681V25.2641C94.2665 24.4979 94.4509 23.7956 94.8197 23.1571C95.1885 22.5186 95.7163 22.0142 96.403 21.6438C97.1025 21.2607 97.9418 21.0692 98.921 21.0692C99.6205 21.0692 100.25 21.1905 100.81 21.4331C101.369 21.6758 101.846 22.0078 102.24 22.4292H102.259C102.666 22.0078 103.15 21.6758 103.709 21.4331C104.281 21.1905 104.917 21.0692 105.617 21.0692C106.596 21.0692 107.429 21.2607 108.116 21.6438C108.815 22.0142 109.349 22.5186 109.718 23.1571C110.087 23.7956 110.271 24.4979 110.271 25.2641V31.0681H107.658V25.2641C107.658 24.7278 107.454 24.2681 107.047 23.885C106.653 23.5019 106.176 23.3103 105.617 23.3103C105.057 23.3103 104.574 23.5019 104.167 23.885C103.773 24.2681 103.576 24.7278 103.576 25.2641V31.0681H100.962V25.2641C100.962 24.7278 100.759 24.2681 100.352 23.885C99.9575 23.5019 99.4806 23.3103 98.921 23.3103C98.3615 23.3103 97.8782 23.5019 97.4713 23.885C97.077 24.2681 96.8799 24.7278 96.8799 25.2641V31.0681H94.2665ZM118.927 31.2979C117.884 31.2979 116.975 31.0808 116.199 30.6467C115.436 30.2125 114.845 29.5995 114.425 28.8078C114.005 28.0033 113.795 27.0647 113.795 25.992V17.085H116.409V22.5058H116.428C116.72 22.0589 117.127 21.7077 117.649 21.4523C118.183 21.1969 118.755 21.0692 119.366 21.0692C120.319 21.0692 121.146 21.2799 121.846 21.7013C122.545 22.1227 123.085 22.7037 123.467 23.4444C123.861 24.1723 124.058 25.0215 124.058 25.992C124.058 27.0136 123.855 27.9267 123.448 28.7312C123.054 29.5229 122.475 30.1486 121.712 30.6083C120.949 31.0681 120.021 31.2979 118.927 31.2979ZM118.927 29.0568C119.703 29.0568 120.307 28.7822 120.739 28.2331C121.184 27.6713 121.407 26.9881 121.407 26.1836C121.407 25.379 121.184 24.7022 120.739 24.1531C120.307 23.5913 119.703 23.3103 118.927 23.3103C118.151 23.3103 117.541 23.5913 117.096 24.1531C116.663 24.7022 116.447 25.379 116.447 26.1836C116.447 26.9881 116.663 27.6713 117.096 28.2331C117.541 28.7822 118.151 29.0568 118.927 29.0568ZM131.78 31.2979C130.776 31.2979 129.879 31.0744 129.091 30.6275C128.302 30.1678 127.679 29.5548 127.221 28.7886C126.763 28.0097 126.535 27.1413 126.535 26.1836C126.535 25.2258 126.763 24.3638 127.221 23.5976C127.679 22.8187 128.302 22.2057 129.091 21.7588C129.879 21.299 130.776 21.0692 131.78 21.0692C132.785 21.0692 133.682 21.299 134.47 21.7588C135.259 22.2057 135.882 22.8187 136.34 23.5976C136.797 24.3638 137.026 25.2258 137.026 26.1836C137.026 27.1413 136.797 28.0097 136.34 28.7886C135.882 29.5548 135.259 30.1678 134.47 30.6275C133.682 31.0744 132.785 31.2979 131.78 31.2979ZM131.78 29.0568C132.582 29.0568 133.211 28.7822 133.669 28.2331C134.139 27.6713 134.375 26.9881 134.375 26.1836C134.375 25.379 134.139 24.7022 133.669 24.1531C133.211 23.5913 132.582 23.3103 131.78 23.3103C130.979 23.3103 130.343 23.5913 129.873 24.1531C129.415 24.7022 129.186 25.379 129.186 26.1836C129.186 26.9881 129.415 27.6713 129.873 28.2331C130.343 28.7822 130.979 29.0568 131.78 29.0568ZM144.754 31.2979C143.749 31.2979 142.853 31.0744 142.064 30.6275C141.276 30.1678 140.653 29.5548 140.195 28.7886C139.737 28.0097 139.508 27.1413 139.508 26.1836C139.508 25.2258 139.737 24.3638 140.195 23.5976C140.653 22.8187 141.276 22.2057 142.064 21.7588C142.853 21.299 143.749 21.0692 144.754 21.0692C145.759 21.0692 146.655 21.299 147.444 21.7588C148.232 22.2057 148.855 22.8187 149.313 23.5976C149.771 24.3638 150 25.2258 150 26.1836C150 27.1413 149.771 28.0097 149.313 28.7886C148.855 29.5548 148.232 30.1678 147.444 30.6275C146.655 31.0744 145.759 31.2979 144.754 31.2979ZM144.754 29.0568C145.555 29.0568 146.185 28.7822 146.643 28.2331C147.113 27.6713 147.348 26.9881 147.348 26.1836C147.348 25.379 147.113 24.7022 146.643 24.1531C146.185 23.5913 145.555 23.3103 144.754 23.3103C143.953 23.3103 143.317 23.5913 142.847 24.1531C142.389 24.7022 142.16 25.379 142.16 26.1836C142.16 26.9881 142.389 27.6713 142.847 28.2331C143.317 28.7822 143.953 29.0568 144.754 29.0568Z" fill="#009F10"/>
<path d="M69.816 50.6722L69.9434 50.4388L69.816 50.6722ZM68.0504 49.0259L67.8252 49.1661L67.8265 49.168L68.0504 49.0259ZM68.0504 44.3404L68.2745 44.4825L68.2756 44.4806L68.0504 44.3404ZM69.816 42.676L69.9434 42.9094L69.816 42.676ZM73.4012 42.061H73.6661V41.7949H73.4012V42.061ZM73.4012 43.1645V43.4305H73.6661V43.1645H73.4012ZM70.4465 43.6348L70.5753 43.8674L70.5769 43.8666L70.4465 43.6348ZM69.1494 44.8831L68.9236 44.744L68.9223 44.7458L68.9212 44.7477L69.1494 44.8831ZM69.1494 48.4651L68.9212 48.6005L68.9223 48.6024L68.9236 48.6042L69.1494 48.4651ZM70.4465 49.7314L70.314 49.9618L70.317 49.9634L70.3199 49.9653L70.4465 49.7314ZM73.4012 50.1837H73.6661V49.9177H73.4012V50.1837ZM73.4012 51.2873V51.5533H73.6661V51.2873H73.4012ZM72.3562 51.0212C71.4467 51.0212 70.6444 50.8251 69.9434 50.4388L69.6885 50.9055C70.4767 51.3394 71.3683 51.5533 72.3562 51.5533V51.0212ZM69.9434 50.4388C69.236 50.0494 68.6815 49.5314 68.2742 48.8838L67.8265 49.168C68.284 49.8953 68.9064 50.4748 69.6885 50.9055L69.9434 50.4388ZM68.2756 48.8857C67.8705 48.2304 67.6667 47.4956 67.6667 46.6741H67.1368C67.1368 47.5893 67.3655 48.4223 67.8252 49.1661L68.2756 48.8857ZM67.6667 46.6741C67.6667 45.8526 67.8705 45.1244 68.2742 44.4825L67.8265 44.1983C67.3655 44.9313 67.1368 45.7589 67.1368 46.6741H67.6667ZM68.2756 44.4806C68.6831 43.8216 69.2371 43.298 69.9434 42.9094L69.6885 42.4427C68.9053 42.874 68.2825 43.4603 67.8252 44.2002L68.2756 44.4806ZM69.9434 42.9094C70.6444 42.5231 71.4467 42.327 72.3562 42.327V41.7949C71.3683 41.7949 70.4767 42.0088 69.6885 42.4427L69.9434 42.9094ZM72.3562 42.327H73.4012V41.7949H72.3562V42.327ZM73.1362 42.061V43.1645H73.6661V42.061H73.1362ZM73.4012 42.8985H72.2662V43.4305H73.4012V42.8985ZM72.2662 42.8985C71.5619 42.8985 70.9102 43.0661 70.3162 43.4031L70.5769 43.8666C71.088 43.5763 71.6494 43.4305 72.2662 43.4305V42.8985ZM70.3178 43.4023C69.7375 43.7261 69.2715 44.1744 68.9236 44.744L69.3751 45.0223C69.6758 44.5306 70.0745 44.1467 70.5753 43.8674L70.3178 43.4023ZM68.9212 44.7477C68.5829 45.3226 68.416 45.967 68.416 46.6741H68.9459C68.9459 46.0548 69.0911 45.5051 69.3775 45.0185L68.9212 44.7477ZM68.416 46.6741C68.416 47.3812 68.5829 48.0256 68.9212 48.6005L69.3775 48.3297C69.0911 47.8431 68.9459 47.2934 68.9459 46.6741H68.416ZM68.9236 48.6042C69.271 49.1728 69.7357 49.6264 70.314 49.9618L70.579 49.5011C70.0764 49.2095 69.6763 48.8187 69.3751 48.326L68.9236 48.6042ZM70.3199 49.9653C70.9134 50.2891 71.5638 50.4498 72.2662 50.4498V49.9177C71.6475 49.9177 71.0848 49.7769 70.5732 49.4976L70.3199 49.9653ZM72.2662 50.4498H73.4012V49.9177H72.2662V50.4498ZM73.1362 50.1837V51.2873H73.6661V50.1837H73.1362ZM73.4012 51.0212H72.3562V51.5533H73.4012V51.0212ZM77.0047 51.2873H76.7397V51.5533H77.0047V51.2873ZM77.0047 38.081V37.8149H76.7397V38.081H77.0047ZM78.2658 38.081H78.5308V37.8149H78.2658V38.081ZM78.2658 51.2873V51.5533H78.5308V51.2873H78.2658ZM77.2696 51.2873V38.081H76.7397V51.2873H77.2696ZM77.0047 38.347H78.2658V37.8149H77.0047V38.347ZM78.0009 38.081V51.2873H78.5308V38.081H78.0009ZM78.2658 51.0212H77.0047V51.5533H78.2658V51.0212Z" fill="#74D61D"/>
<path d="M83.2201 50.6231L83.0836 50.8514L83.0865 50.853L83.2201 50.6231ZM81.5265 48.8683L81.7578 48.7388L81.5265 48.8683ZM81.5265 43.9657L81.757 44.0969L81.7578 44.0953L81.5265 43.9657ZM83.2201 42.2109L83.0839 41.9829L83.2201 42.2109ZM88.1565 42.2109L88.02 42.4392L88.023 42.4408L88.1565 42.2109ZM89.85 43.9476L89.6187 44.0772L89.85 43.9476ZM89.85 48.8683L89.6187 48.7388L89.85 48.8683ZM88.1565 50.6231L88.29 50.853L88.2927 50.8511L88.1565 50.6231ZM87.5079 49.6643L87.6465 49.891L87.6483 49.8899L87.6502 49.8889L87.5079 49.6643ZM88.733 48.3075L88.4991 48.1825L88.498 48.1846L88.4969 48.1865L88.733 48.3075ZM88.733 44.5085L88.4969 44.6295L88.498 44.6314L88.4991 44.6335L88.733 44.5085ZM87.5079 43.1697L87.3656 43.3943L87.3675 43.3953L87.3693 43.3964L87.5079 43.1697ZM83.8506 43.1697L83.9916 43.3951L83.9929 43.3943L83.8506 43.1697ZM82.6255 44.5085L82.3916 44.3834L82.3905 44.3855L82.3895 44.3874L82.6255 44.5085ZM82.6255 48.3075L82.3895 48.4286L82.3905 48.4304L82.3916 48.4326L82.6255 48.3075ZM83.8506 49.6643L83.706 49.8873L83.7092 49.8891L83.7121 49.891L83.8506 49.6643ZM85.6883 50.9903C84.8052 50.9903 84.0295 50.7891 83.3536 50.3933L83.0865 50.853C83.852 51.3013 84.7218 51.5224 85.6883 51.5224V50.9903ZM83.3562 50.3951C82.6753 49.9846 82.1436 49.4337 81.7578 48.7388L81.2952 48.9979C81.726 49.7742 82.3235 50.3933 83.0839 50.8511L83.3562 50.3951ZM81.7578 48.7388C81.3731 48.0457 81.1789 47.2708 81.1789 46.408H80.649C80.649 47.3543 80.8631 48.2197 81.2952 48.9979L81.7578 48.7388ZM81.1789 46.408C81.1789 45.5452 81.3731 44.7772 81.757 44.0969L81.296 43.8346C80.8631 44.6016 80.649 45.4617 80.649 46.408H81.1789ZM81.7578 44.0953C82.1436 43.4004 82.6753 42.8494 83.3562 42.4389L83.0839 41.9829C82.3235 42.4408 81.726 43.0599 81.2952 43.8362L81.7578 44.0953ZM83.3562 42.4389C84.0319 42.0321 84.8065 41.8257 85.6883 41.8257V41.2936C84.7204 41.2936 83.8496 41.5213 83.0839 41.9829L83.3562 42.4389ZM85.6883 41.8257C86.57 41.8257 87.3447 42.0321 88.0203 42.4389L88.2927 41.9829C87.527 41.5213 86.6561 41.2936 85.6883 41.2936V41.8257ZM88.023 42.4408C88.7025 42.8388 89.2332 43.3828 89.6187 44.0772L90.0813 43.8181C89.65 43.041 89.0517 42.4275 88.29 41.9811L88.023 42.4408ZM89.6187 44.0772C90.0034 44.7702 90.1976 45.5452 90.1976 46.408H90.7275C90.7275 45.4617 90.5134 44.5962 90.0813 43.8181L89.6187 44.0772ZM90.1976 46.408C90.1976 47.2708 90.0034 48.0457 89.6187 48.7388L90.0813 48.9979C90.5134 48.2197 90.7275 47.3543 90.7275 46.408H90.1976ZM89.6187 48.7388C89.233 49.4337 88.7012 49.9846 88.0203 50.3951L88.2927 50.8511C89.0531 50.3933 89.6505 49.7742 90.0813 48.9979L89.6187 48.7388ZM88.023 50.3933C87.3471 50.7891 86.5713 50.9903 85.6883 50.9903V51.5224C86.6548 51.5224 87.5246 51.3013 88.29 50.853L88.023 50.3933ZM85.6883 50.4188C86.4166 50.4188 87.0721 50.2451 87.6465 49.891L87.3693 49.4377C86.8869 49.7348 86.3292 49.8867 85.6883 49.8867V50.4188ZM87.6502 49.8889C88.219 49.5252 88.6596 49.037 88.9691 48.4286L88.4969 48.1865C88.2299 48.7116 87.8537 49.128 87.3656 49.4398L87.6502 49.8889ZM88.967 48.4326C89.2894 47.8239 89.4484 47.147 89.4484 46.408H88.9185C88.9185 47.068 88.7773 47.6576 88.4991 48.1825L88.967 48.4326ZM89.4484 46.408C89.4484 45.6689 89.2894 44.9921 88.967 44.3834L88.4991 44.6335C88.7773 45.1584 88.9185 45.7479 88.9185 46.408H89.4484ZM88.9691 44.3874C88.6591 43.7782 88.2174 43.2948 87.6465 42.9431L87.3693 43.3964C87.8553 43.696 88.2304 44.1051 88.4969 44.6295L88.9691 44.3874ZM87.6502 42.9452C87.0753 42.5778 86.4185 42.3972 85.6883 42.3972V42.9292C86.3273 42.9292 86.8837 43.0862 87.3656 43.3943L87.6502 42.9452ZM85.6883 42.3972C84.9472 42.3972 84.2841 42.5775 83.7084 42.9452L83.9929 43.3943C84.474 43.0867 85.0363 42.9292 85.6883 42.9292V42.3972ZM83.7097 42.9444C83.1522 43.2961 82.7124 43.7776 82.3916 44.3834L82.8595 44.6335C83.139 44.1054 83.5163 43.6946 83.9916 43.3951L83.7097 42.9444ZM82.3895 44.3874C82.0805 44.9953 81.9282 45.6705 81.9282 46.408H82.4581C82.4581 45.7463 82.594 45.1552 82.8616 44.6295L82.3895 44.3874ZM81.9282 46.408C81.9282 47.1455 82.0805 47.8207 82.3895 48.4286L82.8616 48.1865C82.594 47.6608 82.4581 47.0696 82.4581 46.408H81.9282ZM82.3916 48.4326C82.7122 49.0375 83.1506 49.5241 83.706 49.8873L83.9953 49.4414C83.5179 49.1291 83.1395 48.7114 82.8595 48.1825L82.3916 48.4326ZM83.7121 49.891C84.2873 50.2454 84.9488 50.4188 85.6883 50.4188V49.8867C85.0344 49.8867 84.4709 49.7346 83.9892 49.4377L83.7121 49.891ZM95.3789 50.7679L95.2551 51.003L95.2567 51.0041L95.2586 51.0049L95.3789 50.7679ZM93.8475 49.3568L93.6212 49.4949L93.6228 49.4975L93.6244 49.5002L93.8475 49.3568ZM93.289 41.7948V41.5288H93.024V41.7948H93.289ZM94.5501 41.7948H94.8151V41.5288H94.5501V41.7948ZM94.9645 48.7779L94.738 48.9157L94.7401 48.9191L94.7422 48.9226L94.9645 48.7779ZM96.0635 49.8091L95.9376 50.0432L95.94 50.0445L95.9424 50.0458L96.0635 49.8091ZM98.928 49.791L98.8046 49.5555L98.8022 49.5568L98.928 49.791ZM100.027 48.7598L100.252 48.9003L100.254 48.8976L100.027 48.7598ZM100.441 41.7948V41.5288H100.176V41.7948H100.441ZM101.703 41.7948H101.967V41.5288H101.703V41.7948ZM101.126 49.3568L100.902 49.2155L100.901 49.2166L101.126 49.3568ZM99.6127 50.7679L99.7348 51.0041L99.7364 51.003L99.6127 50.7679ZM97.5048 50.9903C96.7619 50.9903 96.095 50.8357 95.4991 50.5308L95.2586 51.0049C95.9358 51.3513 96.6861 51.5224 97.5048 51.5224V50.9903ZM95.5026 50.5327C94.9062 50.2161 94.4301 49.7774 94.0706 49.2134L93.6244 49.5002C94.0337 50.1424 94.5785 50.6442 95.2551 51.003L95.5026 50.5327ZM94.074 49.2187C93.7309 48.6518 93.5539 47.9718 93.5539 47.1678H93.024C93.024 48.0521 93.2196 48.8316 93.6212 49.4949L94.074 49.2187ZM93.5539 47.1678V41.7948H93.024V47.1678H93.5539ZM93.289 42.0609H94.5501V41.5288H93.289V42.0609ZM94.2852 41.7948V47.1135H94.8151V41.7948H94.2852ZM94.2852 47.1135C94.2852 47.8028 94.4317 48.4075 94.738 48.9157L95.1913 48.6401C94.9449 48.2314 94.8151 47.7268 94.8151 47.1135H94.2852ZM94.7422 48.9226C95.0535 49.4044 95.4522 49.7795 95.9376 50.0432L96.1896 49.5749C95.7861 49.356 95.452 49.0439 95.1868 48.6332L94.7422 48.9226ZM95.9424 50.0458C96.4246 50.2943 96.9407 50.4188 97.4867 50.4188V49.8867C97.0239 49.8867 96.591 49.7819 96.1845 49.5723L95.9424 50.0458ZM97.4867 50.4188C98.0463 50.4188 98.5701 50.2877 99.0542 50.0251L98.8022 49.5568C98.3974 49.7766 97.9602 49.8867 97.4867 49.8867V50.4188ZM99.0515 50.0264C99.5501 49.7628 99.9513 49.386 100.252 48.9003L99.8021 48.6193C99.5501 49.0261 99.2187 49.3366 98.8046 49.5555L99.0515 50.0264ZM100.254 48.8976C100.56 48.3903 100.706 47.7919 100.706 47.1135H100.176C100.176 47.7137 100.047 48.2128 99.8005 48.622L100.254 48.8976ZM100.706 47.1135V41.7948H100.176V47.1135H100.706ZM100.441 42.0609H101.703V41.5288H100.441V42.0609ZM101.438 41.7948V47.1678H101.967V41.7948H101.438ZM101.438 47.1678C101.438 47.9702 101.255 48.6491 100.902 49.2155L101.35 49.498C101.765 48.8343 101.967 48.0537 101.967 47.1678H101.438ZM100.901 49.2166C100.554 49.7787 100.085 50.2166 99.4889 50.5327L99.7364 51.003C100.414 50.6439 100.954 50.1411 101.351 49.497L100.901 49.2166ZM99.4905 50.5319C98.9076 50.8357 98.2477 50.9903 97.5048 50.9903V51.5224C98.3232 51.5224 99.0685 51.3513 99.7348 51.0038L99.4905 50.5319ZM111.523 50.6955L111.4 50.4601L111.398 50.4609L111.523 50.6955ZM113.216 49.0673L113.444 49.203L113.445 49.2014L113.216 49.0673ZM113.847 37.8149H114.112V37.5488H113.847V37.8149ZM112.586 37.8149V37.5488H112.321V37.8149H112.586ZM112.586 43.6944V43.9604H112.851V43.6944H112.586ZM112.55 43.6944L112.314 43.8152L112.388 43.9604H112.55V43.6944ZM111.127 42.1747L111.267 41.9489L111.127 42.1747ZM106.767 42.1567L106.896 42.3886L106.767 42.1567ZM105.127 43.8029L104.898 43.6702L104.897 43.6712L105.127 43.8029ZM105.163 48.995L104.934 49.1275L104.935 49.1291L105.163 48.995ZM106.839 50.6774L106.708 50.9086L106.71 50.9099L106.713 50.9113L106.839 50.6774ZM107.523 49.7186L107.39 49.9487L107.394 49.9503L107.397 49.9522L107.523 49.7186ZM106.28 48.4342L106.048 48.5629L106.05 48.565L106.28 48.4342ZM106.262 44.4361L106.03 44.3073L106.03 44.3089L106.262 44.4361ZM107.505 43.1336L107.372 42.9034L107.505 43.1336ZM110.874 43.1336L110.741 43.3637L110.743 43.3647L110.745 43.3658L110.874 43.1336ZM112.099 44.418L111.866 44.543L111.867 44.546L111.869 44.5489L112.099 44.418ZM112.099 48.4522L111.869 48.3214L111.868 48.3232L111.867 48.3251L112.099 48.4522ZM110.874 49.7186L110.745 49.4863L110.743 49.4877L110.874 49.7186ZM109.199 51.5224C110.092 51.5224 110.91 51.3263 111.648 50.9301L111.398 50.4609C110.743 50.8126 110.012 50.9903 109.199 50.9903V51.5224ZM111.646 50.9309C112.4 50.5335 113 49.9556 113.444 49.203L112.989 48.9316C112.593 49.6021 112.064 50.1097 111.4 50.4601L111.646 50.9309ZM113.445 49.2014C113.894 48.4283 114.112 47.4993 114.112 46.4261H113.582C113.582 47.4272 113.379 48.2591 112.988 48.9332L113.445 49.2014ZM114.112 46.4261V37.8149H113.582V46.4261H114.112ZM113.847 37.5488H112.586V38.0809H113.847V37.5488ZM112.321 37.8149V43.6944H112.851V37.8149H112.321ZM112.586 43.4283H112.55V43.9604H112.586V43.4283ZM112.786 43.5736C112.45 42.9114 111.94 42.37 111.267 41.9489L110.987 42.4006C111.586 42.7755 112.026 43.2472 112.314 43.8152L112.786 43.5736ZM111.267 41.9489C110.588 41.5243 109.842 41.3117 109.037 41.3117V41.8438C109.744 41.8438 110.392 42.0292 110.987 42.4006L111.267 41.9489ZM109.037 41.3117C108.165 41.3117 107.364 41.5152 106.637 41.9247L106.896 42.3886C107.539 42.0263 108.251 41.8438 109.037 41.8438V41.3117ZM106.637 41.9247C105.909 42.3352 105.329 42.9189 104.898 43.6702L105.357 43.9357C105.742 43.2639 106.255 42.7502 106.896 42.3886L106.637 41.9247ZM104.897 43.6712C104.473 44.4191 104.268 45.3111 104.268 46.3356H104.798C104.798 45.3824 104.989 44.5856 105.358 43.9346L104.897 43.6712ZM104.268 46.3356C104.268 47.4091 104.485 48.3434 104.934 49.1275L105.393 48.8625C105 48.1753 104.798 47.3367 104.798 46.3356H104.268ZM104.935 49.1291C105.377 49.8915 105.969 50.4864 106.708 50.9086L106.97 50.4462C106.315 50.0724 105.79 49.5457 105.392 48.8609L104.935 49.1291ZM106.713 50.9113C107.463 51.3199 108.293 51.5224 109.199 51.5224V50.9903C108.375 50.9903 107.632 50.807 106.965 50.4436L106.713 50.9113ZM109.217 49.8867C108.661 49.8867 108.14 49.7532 107.65 49.485L107.397 49.9522C107.964 50.2629 108.572 50.4188 109.217 50.4188V49.8867ZM107.657 49.4885C107.183 49.2123 106.802 48.8196 106.511 48.3033L106.05 48.565C106.384 49.1583 106.831 49.6218 107.39 49.9487L107.657 49.4885ZM106.512 48.3054C106.226 47.7855 106.077 47.1564 106.077 46.408H105.547C105.547 47.2277 105.71 47.9492 106.048 48.5629L106.512 48.3054ZM106.077 46.408C106.077 45.6836 106.22 45.0717 106.495 44.5633L106.03 44.3089C105.704 44.9099 105.547 45.6128 105.547 46.408H106.077ZM106.494 44.5649C106.785 44.0365 107.167 43.639 107.639 43.3637L107.372 42.9034C106.811 43.2312 106.364 43.7018 106.03 44.3073L106.494 44.5649ZM107.639 43.3637C108.114 43.0857 108.627 42.9473 109.181 42.9473V42.4152C108.534 42.4152 107.929 42.5783 107.372 42.9034L107.639 43.3637ZM109.181 42.9473C109.748 42.9473 110.266 43.0862 110.741 43.3637L111.008 42.9034C110.45 42.5778 109.839 42.4152 109.181 42.4152V42.9473ZM110.745 43.3658C111.214 43.6284 111.587 44.0173 111.866 44.543L112.333 44.293C112.011 43.6848 111.568 43.2176 111.004 42.9013L110.745 43.3658ZM111.869 44.5489C112.154 45.0554 112.303 45.6774 112.303 46.4261H112.833C112.833 45.6067 112.67 44.89 112.33 44.2871L111.869 44.5489ZM112.303 46.4261C112.303 47.1875 112.154 47.8153 111.869 48.3214L112.33 48.5831C112.67 47.9798 112.833 47.2567 112.833 46.4261H112.303ZM111.867 48.3251C111.589 48.8388 111.215 49.223 110.745 49.4863L111.004 49.9509C111.567 49.6353 112.01 49.1753 112.332 48.5794L111.867 48.3251ZM110.743 49.4877C110.28 49.7532 109.773 49.8867 109.217 49.8867V50.4188C109.862 50.4188 110.46 50.2629 111.006 49.9495L110.743 49.4877Z" fill="#74D61D"/>
<defs>
<linearGradient id="paint0_linear_45_1033" x1="15.7984" y1="-2.47178" x2="-4.4488" y2="27.7643" gradientUnits="userSpaceOnUse">
<stop stop-color="#4AFFD4"/>
<stop offset="1" stop-color="#30B3C7"/>
</linearGradient>
<linearGradient id="paint1_linear_45_1033" x1="54.563" y1="11.8141" x2="5.10854" y2="61.2015" gradientUnits="userSpaceOnUse">
<stop stop-color="#88DE20" stop-opacity="0.75"/>
<stop offset="0.325126" stop-color="#8ADD25"/>
<stop offset="1" stop-color="#99FF1E" stop-opacity="0.43"/>
</linearGradient>
<linearGradient id="paint2_linear_45_1033" x1="55.2471" y1="21.4302" x2="49.1791" y2="56.8641" gradientUnits="userSpaceOnUse">
<stop stop-color="#FFEC00" stop-opacity="0.75"/>
<stop offset="0.414068" stop-color="#F5F13C" stop-opacity="0.6"/>
<stop offset="1" stop-color="#F5F13C" stop-opacity="0.46"/>
</linearGradient>
<linearGradient id="paint3_linear_45_1033" x1="27.9367" y1="6.47632" x2="15.8481" y2="62.0843" gradientUnits="userSpaceOnUse">
<stop stop-color="#01B313"/>
<stop offset="1" stop-color="#78EE1B" stop-opacity="0.6"/>
</linearGradient>
</defs>
</svg>
